# xmcd CD database file
#
# Track frame offsets:
#	183
#	25635
#	52283
#	93820
#	118358
#	151993
#	172293
#	194408
#	220538
#
# Disc length: 3285 seconds
#
# Revision: 0
# Processed by: cddbd v1.5.1PL2 Copyright (c) Steve Scherf et al.
# Submitted via: CDex 1.51
#
DISCID=7c0cd309
DTITLE=Tony Pancella - Basic jazz trio
DYEAR=1900
DGENRE=Jazz
TTITLE0=Horsepower
TTITLE1=You don't know what love is
TTITLE2=Lover
TTITLE3=Just in time
TTITLE4=More than you know
TTITLE5=Mister BC
TTITLE6='S Wonderful
TTITLE7=Don't blame me
TTITLE8=Medley: Everything happens to me - April in paris
EXTD=
EXTT0=
EXTT1=
EXTT2=
EXTT3=
EXTT4=
EXTT5=
EXTT6=
EXTT7=
EXTT8=
PLAYORDER=
